<svg width="222" height="294" viewBox="0 0 222 294" fill="none" xmlns="http://www.w3.org/2000/svg">
<path d="M176.287 -76.577C146.345 -84.6002 114.885 -85.1149 84.6961 -78.0758C54.5069 -71.0367 26.5196 -56.6609 3.21331 -36.2218C-20.093 -15.7827 -37.9989 10.0887 -48.9183 39.1009C-59.8377 68.113 -63.4335 99.3704 -59.3874 130.104C-55.3412 160.838 -43.7778 190.1 -25.7216 215.297C-7.66537 240.494 16.3264 260.85 44.1286 274.561C71.9307 288.271 102.685 294.913 133.668 293.899C164.65 292.885 194.904 284.245 221.75 268.746L156.169 155.156C148.003 159.871 138.8 162.499 129.376 162.808C119.952 163.116 110.597 161.096 102.14 156.925C93.683 152.755 86.3852 146.563 80.8928 138.898C75.4004 131.234 71.8831 122.333 70.6523 112.984C69.4215 103.635 70.5153 94.1276 73.8368 85.3026C77.1583 76.4776 82.6049 68.608 89.6943 62.3908C96.7836 56.1736 105.297 51.8008 114.48 49.6596C123.663 47.5184 133.232 47.675 142.34 50.1155L176.287 -76.577Z" fill="#DCBBAD"/>
</svg>
